STARTFONT   2.1
FONT -windows-Triskweline-medium-r-normal--13-100-96-96-c-80-microsoft-cp1252
SIZE  10  96   96
FONTBOUNDINGBOX 8  13  0  -2
STARTPROPERTIES  4
FONT_ASCENT 11
FONT_DESCENT 2
CAP_HEIGHT 11
DEFAULT_CHAR 96
ENDPROPERTIES
CHARS  224
STARTCHAR 0
ENCODING 32
SWIDTH    8000    0
DWIDTH    8    0
BBX  8  13  0   -2
BITMAP
00
00
00
00
00
00
00
00
00
00
00
00
00
ENDCHAR
STARTCHAR 1
ENCODING 33
SWIDTH    8000    0
DWIDTH    8    0
BBX  8  13  0   -2
BITMAP
00
00
08
08
08
08
08
08
08
00
08
00
00
ENDCHAR
STARTCHAR 2
ENCODING 34
SWIDTH    8000    0
DWIDTH    8    0
BBX  8  13  0   -2
BITMAP
00
00
14
14
14
00
00
00
00
00
00
00
00
ENDCHAR
STARTCHAR 3
ENCODING 35
SWIDTH    8000    0
DWIDTH    8    0
BBX  8  13  0   -2
BITMAP
00
00
14
14
3E
14
14
14
3E
14
14
00
00
ENDCHAR
STARTCHAR 4
ENCODING 36
SWIDTH    8000    0
DWIDTH    8    0
BBX  8  13  0   -2
BITMAP
00
00
08
1C
22
20
1C
02
22
1C
08
00
00
ENDCHAR
STARTCHAR 5
ENCODING 37
SWIDTH    8000    0
DWIDTH    8    0
BBX  8  13  0   -2
BITMAP
00
00
20
51
22
04
08
10
22
45
02
00
00
ENDCHAR
STARTCHAR 6
ENCODING 38
SWIDTH    8000    0
DWIDTH    8    0
BBX  8  13  0   -2
BITMAP
00
00
0C
12
12
14
08
15
22
24
1B
00
00
ENDCHAR
STARTCHAR 7
ENCODING 39
SWIDTH    8000    0
DWIDTH    8    0
BBX  8  13  0   -2
BITMAP
00
00
08
08
08
00
00
00
00
00
00
00
00
ENDCHAR
STARTCHAR 8
ENCODING 40
SWIDTH    8000    0
DWIDTH    8    0
BBX  8  13  0   -2
BITMAP
00
00
04
08
08
10
10
10
10
10
08
08
04
ENDCHAR
STARTCHAR 9
ENCODING 41
SWIDTH    8000    0
DWIDTH    8    0
BBX  8  13  0   -2
BITMAP
00
00
10
08
08
04
04
04
04
04
08
08
10
ENDCHAR
STARTCHAR 10
ENCODING 42
SWIDTH    8000    0
DWIDTH    8    0
BBX  8  13  0   -2
BITMAP
00
00
00
00
36
1C
7F
1C
36
00
00
00
00
ENDCHAR
STARTCHAR 11
ENCODING 43
SWIDTH    8000    0
DWIDTH    8    0
BBX  8  13  0   -2
BITMAP
00
00
00
00
08
08
08
7F
08
08
08
00
00
ENDCHAR
STARTCHAR 12
ENCODING 44
SWIDTH    8000    0
DWIDTH    8    0
BBX  8  13  0   -2
BITMAP
00
00
00
00
00
00
00
00
00
00
08
10
00
ENDCHAR
STARTCHAR 13
ENCODING 45
SWIDTH    8000    0
DWIDTH    8    0
BBX  8  13  0   -2
BITMAP
00
00
00
00
00
00
00
7F
00
00
00
00
00
ENDCHAR
STARTCHAR 14
ENCODING 46
SWIDTH    8000    0
DWIDTH    8    0
BBX  8  13  0   -2
BITMAP
00
00
00
00
00
00
00
00
00
00
08
00
00
ENDCHAR
STARTCHAR 15
ENCODING 47
SWIDTH    8000    0
DWIDTH    8    0
BBX  8  13  0   -2
BITMAP
00
00
00
01
02
04
08
10
20
40
00
00
00
ENDCHAR
STARTCHAR 16
ENCODING 48
SWIDTH    8000    0
DWIDTH    8    0
BBX  8  13  0   -2
BITMAP
00
00
1C
22
22
22
22
22
22
22
1C
00
00
ENDCHAR
STARTCHAR 17
ENCODING 49
SWIDTH    8000    0
DWIDTH    8    0
BBX  8  13  0   -2
BITMAP
00
00
08
18
28
08
08
08
08
08
08
00
00
ENDCHAR
STARTCHAR 18
ENCODING 50
SWIDTH    8000    0
DWIDTH    8    0
BBX  8  13  0   -2
BITMAP
00
00
1C
22
02
02
04
08
10
20
3E
00
00
ENDCHAR
STARTCHAR 19
ENCODING 51
SWIDTH    8000    0
DWIDTH    8    0
BBX  8  13  0   -2
BITMAP
00
00
1C
22
02
02
0C
02
02
22
1C
00
00
ENDCHAR
STARTCHAR 20
ENCODING 52
SWIDTH    8000    0
DWIDTH    8    0
BBX  8  13  0   -2
BITMAP
00
00
04
0C
14
14
24
3E
04
04
04
00
00
ENDCHAR
STARTCHAR 21
ENCODING 53
SWIDTH    8000    0
DWIDTH    8    0
BBX  8  13  0   -2
BITMAP
00
00
3E
20
20
20
3C
02
02
22
1C
00
00
ENDCHAR
STARTCHAR 22
ENCODING 54
SWIDTH    8000    0
DWIDTH    8    0
BBX  8  13  0   -2
BITMAP
00
00
0C
10
20
20
3C
22
22
22
1C
00
00
ENDCHAR
STARTCHAR 23
ENCODING 55
SWIDTH    8000    0
DWIDTH    8    0
BBX  8  13  0   -2
BITMAP
00
00
3E
02
02
04
04
08
08
10
10
00
00
ENDCHAR
STARTCHAR 24
ENCODING 56
SWIDTH    8000    0
DWIDTH    8    0
BBX  8  13  0   -2
BITMAP
00
00
1C
22
22
22
1C
22
22
22
1C
00
00
ENDCHAR
STARTCHAR 25
ENCODING 57
SWIDTH    8000    0
DWIDTH    8    0
BBX  8  13  0   -2
BITMAP
00
00
1C
22
22
22
1E
02
02
04
18
00
00
ENDCHAR
STARTCHAR 26
ENCODING 58
SWIDTH    8000    0
DWIDTH    8    0
BBX  8  13  0   -2
BITMAP
00
00
00
00
00
08
00
00
00
00
08
00
00
ENDCHAR
STARTCHAR 27
ENCODING 59
SWIDTH    8000    0
DWIDTH    8    0
BBX  8  13  0   -2
BITMAP
00
00
00
00
00
08
00
00
00
00
08
10
00
ENDCHAR
STARTCHAR 28
ENCODING 60
SWIDTH    8000    0
DWIDTH    8    0
BBX  8  13  0   -2
BITMAP
00
00
00
00
04
08
10
20
10
08
04
00
00
ENDCHAR
STARTCHAR 29
ENCODING 61
SWIDTH    8000    0
DWIDTH    8    0
BBX  8  13  0   -2
BITMAP
00
00
00
00
00
3E
00
3E
00
00
00
00
00
ENDCHAR
STARTCHAR 30
ENCODING 62
SWIDTH    8000    0
DWIDTH    8    0
BBX  8  13  0   -2
BITMAP
00
00
00
00
10
08
04
02
04
08
10
00
00
ENDCHAR
STARTCHAR 31
ENCODING 63
SWIDTH    8000    0
DWIDTH    8    0
BBX  8  13  0   -2
BITMAP
00
00
1C
22
02
02
04
08
08
00
08
00
00
ENDCHAR
STARTCHAR 32
ENCODING 64
SWIDTH    8000    0
DWIDTH    8    0
BBX  8  13  0   -2
BITMAP
00
00
1E
21
4D
55
55
55
4E
20
1C
00
00
ENDCHAR
STARTCHAR 33
ENCODING 65
SWIDTH    8000    0
DWIDTH    8    0
BBX  8  13  0   -2
BITMAP
00
00
0C
12
12
21
21
3F
21
21
21
00
00
ENDCHAR
STARTCHAR 34
ENCODING 66
SWIDTH    8000    0
DWIDTH    8    0
BBX  8  13  0   -2
BITMAP
00
00
3E
21
21
21
3E
21
21
21
3E
00
00
ENDCHAR
STARTCHAR 35
ENCODING 67
SWIDTH    8000    0
DWIDTH    8    0
BBX  8  13  0   -2
BITMAP
00
00
1E
21
40
40
40
40
40
21
1E
00
00
ENDCHAR
STARTCHAR 36
ENCODING 68
SWIDTH    8000    0
DWIDTH    8    0
BBX  8  13  0   -2
BITMAP
00
00
3C
22
21
21
21
21
21
22
3C
00
00
ENDCHAR
STARTCHAR 37
ENCODING 69
SWIDTH    8000    0
DWIDTH    8    0
BBX  8  13  0   -2
BITMAP
00
00
3F
20
20
20
3C
20
20
20
3F
00
00
ENDCHAR
STARTCHAR 38
ENCODING 70
SWIDTH    8000    0
DWIDTH    8    0
BBX  8  13  0   -2
BITMAP
00
00
3F
20
20
20
3C
20
20
20
20
00
00
ENDCHAR
STARTCHAR 39
ENCODING 71
SWIDTH    8000    0
DWIDTH    8    0
BBX  8  13  0   -2
BITMAP
00
00
1E
21
40
40
40
47
41
21
1E
00
00
ENDCHAR
STARTCHAR 40
ENCODING 72
SWIDTH    8000    0
DWIDTH    8    0
BBX  8  13  0   -2
BITMAP
00
00
21
21
21
21
3F
21
21
21
21
00
00
ENDCHAR
STARTCHAR 41
ENCODING 73
SWIDTH    8000    0
DWIDTH    8    0
BBX  8  13  0   -2
BITMAP
00
00
1C
08
08
08
08
08
08
08
1C
00
00
ENDCHAR
STARTCHAR 42
ENCODING 74
SWIDTH    8000    0
DWIDTH    8    0
BBX  8  13  0   -2
BITMAP
00
00
1F
01
01
01
01
01
01
21
1E
00
00
ENDCHAR
STARTCHAR 43
ENCODING 75
SWIDTH    8000    0
DWIDTH    8    0
BBX  8  13  0   -2
BITMAP
00
00
21
22
24
28
30
28
24
22
21
00
00
ENDCHAR
STARTCHAR 44
ENCODING 76
SWIDTH    8000    0
DWIDTH    8    0
BBX  8  13  0   -2
BITMAP
00
00
20
20
20
20
20
20
20
20
3F
00
00
ENDCHAR
STARTCHAR 45
ENCODING 77
SWIDTH    8000    0
DWIDTH    8    0
BBX  8  13  0   -2
BITMAP
00
00
41
63
55
55
49
49
41
41
41
00
00
ENDCHAR
STARTCHAR 46
ENCODING 78
SWIDTH    8000    0
DWIDTH    8    0
BBX  8  13  0   -2
BITMAP
00
00
21
31
29
29
25
25
25
23
21
00
00
ENDCHAR
STARTCHAR 47
ENCODING 79
SWIDTH    8000    0
DWIDTH    8    0
BBX  8  13  0   -2
BITMAP
00
00
1C
22
41
41
41
41
41
22
1C
00
00
ENDCHAR
STARTCHAR 48
ENCODING 80
SWIDTH    8000    0
DWIDTH    8    0
BBX  8  13  0   -2
BITMAP
00
00
3E
21
21
21
3E
20
20
20
20
00
00
ENDCHAR
STARTCHAR 49
ENCODING 81
SWIDTH    8000    0
DWIDTH    8    0
BBX  8  13  0   -2
BITMAP
00
00
1C
22
41
41
41
41
45
22
1D
00
00
ENDCHAR
STARTCHAR 50
ENCODING 82
SWIDTH    8000    0
DWIDTH    8    0
BBX  8  13  0   -2
BITMAP
00
00
3E
21
21
21
3E
28
24
22
21
00
00
ENDCHAR
STARTCHAR 51
ENCODING 83
SWIDTH    8000    0
DWIDTH    8    0
BBX  8  13  0   -2
BITMAP
00
00
3E
41
40
40
3E
01
01
41
3E
00
00
ENDCHAR
STARTCHAR 52
ENCODING 84
SWIDTH    8000    0
DWIDTH    8    0
BBX  8  13  0   -2
BITMAP
00
00
7F
08
08
08
08
08
08
08
08
00
00
ENDCHAR
STARTCHAR 53
ENCODING 85
SWIDTH    8000    0
DWIDTH    8    0
BBX  8  13  0   -2
BITMAP
00
00
21
21
21
21
21
21
21
21
1E
00
00
ENDCHAR
STARTCHAR 54
ENCODING 86
SWIDTH    8000    0
DWIDTH    8    0
BBX  8  13  0   -2
BITMAP
00
00
41
41
41
22
22
14
14
08
08
00
00
ENDCHAR
STARTCHAR 55
ENCODING 87
SWIDTH    8000    0
DWIDTH    8    0
BBX  8  13  0   -2
BITMAP
00
00
41
41
41
41
2A
2A
2A
2A
14
00
00
ENDCHAR
STARTCHAR 56
ENCODING 88
SWIDTH    8000    0
DWIDTH    8    0
BBX  8  13  0   -2
BITMAP
00
00
41
41
22
14
08
14
22
41
41
00
00
ENDCHAR
STARTCHAR 57
ENCODING 89
SWIDTH    8000    0
DWIDTH    8    0
BBX  8  13  0   -2
BITMAP
00
00
41
41
41
22
14
08
08
08
08
00
00
ENDCHAR
STARTCHAR 58
ENCODING 90
SWIDTH    8000    0
DWIDTH    8    0
BBX  8  13  0   -2
BITMAP
00
00
7F
01
02
04
08
10
20
40
7F
00
00
ENDCHAR
STARTCHAR 59
ENCODING 91
SWIDTH    8000    0
DWIDTH    8    0
BBX  8  13  0   -2
BITMAP
00
00
1C
10
10
10
10
10
10
10
10
10
1C
ENDCHAR
STARTCHAR 60
ENCODING 92
SWIDTH    8000    0
DWIDTH    8    0
BBX  8  13  0   -2
BITMAP
00
00
00
40
20
10
08
04
02
01
00
00
00
ENDCHAR
STARTCHAR 61
ENCODING 93
SWIDTH    8000    0
DWIDTH    8    0
BBX  8  13  0   -2
BITMAP
00
00
1C
04
04
04
04
04
04
04
04
04
1C
ENDCHAR
STARTCHAR 62
ENCODING 94
SWIDTH    8000    0
DWIDTH    8    0
BBX  8  13  0   -2
BITMAP
00
08
14
22
00
00
00
00
00
00
00
00
00
ENDCHAR
STARTCHAR 63
ENCODING 95
SWIDTH    8000    0
DWIDTH    8    0
BBX  8  13  0   -2
BITMAP
00
00
00
00
00
00
00
00
00
00
00
00
FF
ENDCHAR
STARTCHAR 64
ENCODING 96
SWIDTH    8000    0
DWIDTH    8    0
BBX  8  13  0   -2
BITMAP
00
00
10
08
00
00
00
00
00
00
00
00
00
ENDCHAR
STARTCHAR 65
ENCODING 97
SWIDTH    8000    0
DWIDTH    8    0
BBX  8  13  0   -2
BITMAP
00
00
00
00
00
1E
01
1F
21
21
1F
00
00
ENDCHAR
STARTCHAR 66
ENCODING 98
SWIDTH    8000    0
DWIDTH    8    0
BBX  8  13  0   -2
BITMAP
00
00
20
20
20
3E
21
21
21
21
3E
00
00
ENDCHAR
STARTCHAR 67
ENCODING 99
SWIDTH    8000    0
DWIDTH    8    0
BBX  8  13  0   -2
BITMAP
00
00
00
00
00
1E
21
20
20
21
1E
00
00
ENDCHAR
STARTCHAR 68
ENCODING 100
SWIDTH    8000    0
DWIDTH    8    0
BBX  8  13  0   -2
BITMAP
00
00
01
01
01
1F
21
21
21
21
1F
00
00
ENDCHAR
STARTCHAR 69
ENCODING 101
SWIDTH    8000    0
DWIDTH    8    0
BBX  8  13  0   -2
BITMAP
00
00
00
00
00
1E
21
3F
20
21
1E
00
00
ENDCHAR
STARTCHAR 70
ENCODING 102
SWIDTH    8000    0
DWIDTH    8    0
BBX  8  13  0   -2
BITMAP
00
00
06
08
08
1E
08
08
08
08
08
00
00
ENDCHAR
STARTCHAR 71
ENCODING 103
SWIDTH    8000    0
DWIDTH    8    0
BBX  8  13  0   -2
BITMAP
00
00
00
00
00
1F
21
21
21
1F
01
01
1E
ENDCHAR
STARTCHAR 72
ENCODING 104
SWIDTH    8000    0
DWIDTH    8    0
BBX  8  13  0   -2
BITMAP
00
00
20
20
20
2E
31
21
21
21
21
00
00
ENDCHAR
STARTCHAR 73
ENCODING 105
SWIDTH    8000    0
DWIDTH    8    0
BBX  8  13  0   -2
BITMAP
00
00
08
00
00
08
08
08
08
08
08
00
00
ENDCHAR
STARTCHAR 74
ENCODING 106
SWIDTH    8000    0
DWIDTH    8    0
BBX  8  13  0   -2
BITMAP
00
00
04
00
00
04
04
04
04
04
04
04
38
ENDCHAR
STARTCHAR 75
ENCODING 107
SWIDTH    8000    0
DWIDTH    8    0
BBX  8  13  0   -2
BITMAP
00
00
10
10
10
11
12
1C
14
12
11
00
00
ENDCHAR
STARTCHAR 76
ENCODING 108
SWIDTH    8000    0
DWIDTH    8    0
BBX  8  13  0   -2
BITMAP
00
00
08
08
08
08
08
08
08
08
06
00
00
ENDCHAR
STARTCHAR 77
ENCODING 109
SWIDTH    8000    0
DWIDTH    8    0
BBX  8  13  0   -2
BITMAP
00
00
00
00
00
76
49
49
49
49
49
00
00
ENDCHAR
STARTCHAR 78
ENCODING 110
SWIDTH    8000    0
DWIDTH    8    0
BBX  8  13  0   -2
BITMAP
00
00
00
00
00
2E
31
21
21
21
21
00
00
ENDCHAR
STARTCHAR 79
ENCODING 111
SWIDTH    8000    0
DWIDTH    8    0
BBX  8  13  0   -2
BITMAP
00
00
00
00
00
1E
21
21
21
21
1E
00
00
ENDCHAR
STARTCHAR 80
ENCODING 112
SWIDTH    8000    0
DWIDTH    8    0
BBX  8  13  0   -2
BITMAP
00
00
00
00
00
3E
21
21
21
21
3E
20
20
ENDCHAR
STARTCHAR 81
ENCODING 113
SWIDTH    8000    0
DWIDTH    8    0
BBX  8  13  0   -2
BITMAP
00
00
00
00
00
1F
21
21
21
21
1F
01
01
ENDCHAR
STARTCHAR 82
ENCODING 114
SWIDTH    8000    0
DWIDTH    8    0
BBX  8  13  0   -2
BITMAP
00
00
00
00
00
16
19
10
10
10
10
00
00
ENDCHAR
STARTCHAR 83
ENCODING 115
SWIDTH    8000    0
DWIDTH    8    0
BBX  8  13  0   -2
BITMAP
00
00
00
00
00
1E
21
18
06
21
1E
00
00
ENDCHAR
STARTCHAR 84
ENCODING 116
SWIDTH    8000    0
DWIDTH    8    0
BBX  8  13  0   -2
BITMAP
00
00
00
08
08
1E
08
08
08
08
06
00
00
ENDCHAR
STARTCHAR 85
ENCODING 117
SWIDTH    8000    0
DWIDTH    8    0
BBX  8  13  0   -2
BITMAP
00
00
00
00
00
21
21
21
21
23
1D
00
00
ENDCHAR
STARTCHAR 86
ENCODING 118
SWIDTH    8000    0
DWIDTH    8    0
BBX  8  13  0   -2
BITMAP
00
00
00
00
00
22
22
14
14
14
08
00
00
ENDCHAR
STARTCHAR 87
ENCODING 119
SWIDTH    8000    0
DWIDTH    8    0
BBX  8  13  0   -2
BITMAP
00
00
00
00
00
41
41
2A
2A
2A
14
00
00
ENDCHAR
STARTCHAR 88
ENCODING 120
SWIDTH    8000    0
DWIDTH    8    0
BBX  8  13  0   -2
BITMAP
00
00
00
00
00
21
12
0C
0C
12
21
00
00
ENDCHAR
STARTCHAR 89
ENCODING 121
SWIDTH    8000    0
DWIDTH    8    0
BBX  8  13  0   -2
BITMAP
00
00
00
00
00
41
22
22
14
14
08
08
30
ENDCHAR
STARTCHAR 90
ENCODING 122
SWIDTH    8000    0
DWIDTH    8    0
BBX  8  13  0   -2
BITMAP
00
00
00
00
00
3F
02
04
08
10
3F
00
00
ENDCHAR
STARTCHAR 91
ENCODING 123
SWIDTH    8000    0
DWIDTH    8    0
BBX  8  13  0   -2
BITMAP
00
00
06
08
08
08
08
30
08
08
08
08
06
ENDCHAR
STARTCHAR 92
ENCODING 124
SWIDTH    8000    0
DWIDTH    8    0
BBX  8  13  0   -2
BITMAP
00
08
08
08
08
08
08
08
08
08
08
08
08
ENDCHAR
STARTCHAR 93
ENCODING 125
SWIDTH    8000    0
DWIDTH    8    0
BBX  8  13  0   -2
BITMAP
00
00
30
08
08
08
08
06
08
08
08
08
30
ENDCHAR
STARTCHAR 94
ENCODING 126
SWIDTH    8000    0
DWIDTH    8    0
BBX  8  13  0   -2
BITMAP
00
00
00
31
49
46
00
00
00
00
00
00
00
ENDCHAR
STARTCHAR 95
ENCODING 127
SWIDTH    8000    0
DWIDTH    8    0
BBX  8  13  0   -2
BITMAP
00
00
00
1C
1C
1C
1C
1C
1C
1C
1C
1C
00
ENDCHAR
STARTCHAR 96
ENCODING 128
SWIDTH    8000    0
DWIDTH    8    0
BBX  8  13  0   -2
BITMAP
00
00
0E
11
20
7E
20
7C
20
11
0E
00
00
ENDCHAR
STARTCHAR 97
ENCODING 129
SWIDTH    8000    0
DWIDTH    8    0
BBX  8  13  0   -2
BITMAP
00
00
00
1C
1C
1C
1C
1C
1C
1C
1C
1C
00
ENDCHAR
STARTCHAR 98
ENCODING 130
SWIDTH    8000    0
DWIDTH    8    0
BBX  8  13  0   -2
BITMAP
00
00
00
1C
1C
1C
1C
1C
1C
1C
1C
1C
00
ENDCHAR
STARTCHAR 99
ENCODING 131
SWIDTH    8000    0
DWIDTH    8    0
BBX  8  13  0   -2
BITMAP
00
00
00
1C
1C
1C
1C
1C
1C
1C
1C
1C
00
ENDCHAR
STARTCHAR 100
ENCODING 132
SWIDTH    8000    0
DWIDTH    8    0
BBX  8  13  0   -2
BITMAP
00
00
00
1C
1C
1C
1C
1C
1C
1C
1C
1C
00
ENDCHAR
STARTCHAR 101
ENCODING 133
SWIDTH    8000    0
DWIDTH    8    0
BBX  8  13  0   -2
BITMAP
00
00
00
1C
1C
1C
1C
1C
1C
1C
1C
1C
00
ENDCHAR
STARTCHAR 102
ENCODING 134
SWIDTH    8000    0
DWIDTH    8    0
BBX  8  13  0   -2
BITMAP
00
00
00
1C
1C
1C
1C
1C
1C
1C
1C
1C
00
ENDCHAR
STARTCHAR 103
ENCODING 135
SWIDTH    8000    0
DWIDTH    8    0
BBX  8  13  0   -2
BITMAP
00
00
00
1C
1C
1C
1C
1C
1C
1C
1C
1C
00
ENDCHAR
STARTCHAR 104
ENCODING 136
SWIDTH    8000    0
DWIDTH    8    0
BBX  8  13  0   -2
BITMAP
00
00
00
1C
1C
1C
1C
1C
1C
1C
1C
1C
00
ENDCHAR
STARTCHAR 105
ENCODING 137
SWIDTH    8000    0
DWIDTH    8    0
BBX  8  13  0   -2
BITMAP
00
00
00
1C
1C
1C
1C
1C
1C
1C
1C
1C
00
ENDCHAR
STARTCHAR 106
ENCODING 138
SWIDTH    8000    0
DWIDTH    8    0
BBX  8  13  0   -2
BITMAP
00
00
00
1C
1C
1C
1C
1C
1C
1C
1C
1C
00
ENDCHAR
STARTCHAR 107
ENCODING 139
SWIDTH    8000    0
DWIDTH    8    0
BBX  8  13  0   -2
BITMAP
00
00
00
1C
1C
1C
1C
1C
1C
1C
1C
1C
00
ENDCHAR
STARTCHAR 108
ENCODING 140
SWIDTH    8000    0
DWIDTH    8    0
BBX  8  13  0   -2
BITMAP
00
00
00
1C
1C
1C
1C
1C
1C
1C
1C
1C
00
ENDCHAR
STARTCHAR 109
ENCODING 141
SWIDTH    8000    0
DWIDTH    8    0
BBX  8  13  0   -2
BITMAP
00
00
00
1C
1C
1C
1C
1C
1C
1C
1C
1C
00
ENDCHAR
STARTCHAR 110
ENCODING 142
SWIDTH    8000    0
DWIDTH    8    0
BBX  8  13  0   -2
BITMAP
00
00
00
1C
1C
1C
1C
1C
1C
1C
1C
1C
00
ENDCHAR
STARTCHAR 111
ENCODING 143
SWIDTH    8000    0
DWIDTH    8    0
BBX  8  13  0   -2
BITMAP
00
00
00
1C
1C
1C
1C
1C
1C
1C
1C
1C
00
ENDCHAR
STARTCHAR 112
ENCODING 144
SWIDTH    8000    0
DWIDTH    8    0
BBX  8  13  0   -2
BITMAP
00
00
00
1C
1C
1C
1C
1C
1C
1C
1C
1C
00
ENDCHAR
STARTCHAR 113
ENCODING 145
SWIDTH    8000    0
DWIDTH    8    0
BBX  8  13  0   -2
BITMAP
00
00
08
10
00
00
00
00
00
00
00
00
00
ENDCHAR
STARTCHAR 114
ENCODING 146
SWIDTH    8000    0
DWIDTH    8    0
BBX  8  13  0   -2
BITMAP
00
00
08
10
00
00
00
00
00
00
00
00
00
ENDCHAR
STARTCHAR 115
ENCODING 147
SWIDTH    8000    0
DWIDTH    8    0
BBX  8  13  0   -2
BITMAP
00
00
00
1C
1C
1C
1C
1C
1C
1C
1C
1C
00
ENDCHAR
STARTCHAR 116
ENCODING 148
SWIDTH    8000    0
DWIDTH    8    0
BBX  8  13  0   -2
BITMAP
00
00
00
1C
1C
1C
1C
1C
1C
1C
1C
1C
00
ENDCHAR
STARTCHAR 117
ENCODING 149
SWIDTH    8000    0
DWIDTH    8    0
BBX  8  13  0   -2
BITMAP
00
00
00
1C
1C
1C
1C
1C
1C
1C
1C
1C
00
ENDCHAR
STARTCHAR 118
ENCODING 150
SWIDTH    8000    0
DWIDTH    8    0
BBX  8  13  0   -2
BITMAP
00
00
00
1C
1C
1C
1C
1C
1C
1C
1C
1C
00
ENDCHAR
STARTCHAR 119
ENCODING 151
SWIDTH    8000    0
DWIDTH    8    0
BBX  8  13  0   -2
BITMAP
00
00
00
1C
1C
1C
1C
1C
1C
1C
1C
1C
00
ENDCHAR
STARTCHAR 120
ENCODING 152
SWIDTH    8000    0
DWIDTH    8    0
BBX  8  13  0   -2
BITMAP
00
00
00
1C
1C
1C
1C
1C
1C
1C
1C
1C
00
ENDCHAR
STARTCHAR 121
ENCODING 153
SWIDTH    8000    0
DWIDTH    8    0
BBX  8  13  0   -2
BITMAP
00
00
00
1C
1C
1C
1C
1C
1C
1C
1C
1C
00
ENDCHAR
STARTCHAR 122
ENCODING 154
SWIDTH    8000    0
DWIDTH    8    0
BBX  8  13  0   -2
BITMAP
00
00
00
1C
1C
1C
1C
1C
1C
1C
1C
1C
00
ENDCHAR
STARTCHAR 123
ENCODING 155
SWIDTH    8000    0
DWIDTH    8    0
BBX  8  13  0   -2
BITMAP
00
00
00
1C
1C
1C
1C
1C
1C
1C
1C
1C
00
ENDCHAR
STARTCHAR 124
ENCODING 156
SWIDTH    8000    0
DWIDTH    8    0
BBX  8  13  0   -2
BITMAP
00
00
00
1C
1C
1C
1C
1C
1C
1C
1C
1C
00
ENDCHAR
STARTCHAR 125
ENCODING 157
SWIDTH    8000    0
DWIDTH    8    0
BBX  8  13  0   -2
BITMAP
00
00
00
1C
1C
1C
1C
1C
1C
1C
1C
1C
00
ENDCHAR
STARTCHAR 126
ENCODING 158
SWIDTH    8000    0
DWIDTH    8    0
BBX  8  13  0   -2
BITMAP
00
00
00
1C
1C
1C
1C
1C
1C
1C
1C
1C
00
ENDCHAR
STARTCHAR 127
ENCODING 159
SWIDTH    8000    0
DWIDTH    8    0
BBX  8  13  0   -2
BITMAP
00
00
00
1C
1C
1C
1C
1C
1C
1C
1C
1C
00
ENDCHAR
STARTCHAR 128
ENCODING 160
SWIDTH    8000    0
DWIDTH    8    0
BBX  8  13  0   -2
BITMAP
00
00
00
00
00
00
00
00
00
00
00
00
00
ENDCHAR
STARTCHAR 129
ENCODING 161
SWIDTH    8000    0
DWIDTH    8    0
BBX  8  13  0   -2
BITMAP
00
00
08
00
08
08
08
08
08
08
08
00
00
ENDCHAR
STARTCHAR 130
ENCODING 162
SWIDTH    8000    0
DWIDTH    8    0
BBX  8  13  0   -2
BITMAP
00
00
00
00
08
1C
22
20
22
1C
08
00
00
ENDCHAR
STARTCHAR 131
ENCODING 163
SWIDTH    8000    0
DWIDTH    8    0
BBX  8  13  0   -2
BITMAP
00
00
00
18
24
20
10
3C
10
10
3E
00
00
ENDCHAR
STARTCHAR 132
ENCODING 164
SWIDTH    8000    0
DWIDTH    8    0
BBX  8  13  0   -2
BITMAP
00
00
41
3E
22
22
22
3E
41
00
00
00
00
ENDCHAR
STARTCHAR 133
ENCODING 165
SWIDTH    8000    0
DWIDTH    8    0
BBX  8  13  0   -2
BITMAP
00
00
00
77
22
7F
14
7F
08
08
1C
00
00
ENDCHAR
STARTCHAR 134
ENCODING 166
SWIDTH    8000    0
DWIDTH    8    0
BBX  8  13  0   -2
BITMAP
00
00
08
08
08
08
08
00
08
08
08
08
08
ENDCHAR
STARTCHAR 135
ENCODING 167
SWIDTH    8000    0
DWIDTH    8    0
BBX  8  13  0   -2
BITMAP
00
00
1E
22
50
48
24
12
0A
44
78
00
00
ENDCHAR
STARTCHAR 136
ENCODING 168
SWIDTH    8000    0
DWIDTH    8    0
BBX  8  13  0   -2
BITMAP
00
00
22
00
00
00
00
00
00
00
00
00
00
ENDCHAR
STARTCHAR 137
ENCODING 169
SWIDTH    8000    0
DWIDTH    8    0
BBX  8  13  0   -2
BITMAP
00
00
1C
22
4D
51
51
4D
22
1C
00
00
00
ENDCHAR
STARTCHAR 138
ENCODING 170
SWIDTH    8000    0
DWIDTH    8    0
BBX  8  13  0   -2
BITMAP
00
00
18
04
1C
24
1C
00
3C
00
00
00
00
ENDCHAR
STARTCHAR 139
ENCODING 171
SWIDTH    8000    0
DWIDTH    8    0
BBX  8  13  0   -2
BITMAP
00
00
00
00
00
00
11
22
44
22
11
00
00
ENDCHAR
STARTCHAR 140
ENCODING 172
SWIDTH    8000    0
DWIDTH    8    0
BBX  8  13  0   -2
BITMAP
00
00
00
00
00
3E
02
00
00
00
00
00
00
ENDCHAR
STARTCHAR 141
ENCODING 173
SWIDTH    8000    0
DWIDTH    8    0
BBX  8  13  0   -2
BITMAP
00
00
00
00
00
00
00
7F
00
00
00
00
00
ENDCHAR
STARTCHAR 142
ENCODING 174
SWIDTH    8000    0
DWIDTH    8    0
BBX  8  13  0   -2
BITMAP
00
00
1C
22
59
55
59
55
22
1C
00
00
00
ENDCHAR
STARTCHAR 143
ENCODING 175
SWIDTH    8000    0
DWIDTH    8    0
BBX  8  13  0   -2
BITMAP
00
FF
00
00
00
00
00
00
00
00
00
00
00
ENDCHAR
STARTCHAR 144
ENCODING 176
SWIDTH    8000    0
DWIDTH    8    0
BBX  8  13  0   -2
BITMAP
00
00
08
14
08
00
00
00
00
00
00
00
00
ENDCHAR
STARTCHAR 145
ENCODING 177
SWIDTH    8000    0
DWIDTH    8    0
BBX  8  13  0   -2
BITMAP
00
00
08
08
08
7F
08
08
08
00
7F
00
00
ENDCHAR
STARTCHAR 146
ENCODING 178
SWIDTH    8000    0
DWIDTH    8    0
BBX  8  13  0   -2
BITMAP
00
00
08
14
04
08
1C
00
00
00
00
00
00
ENDCHAR
STARTCHAR 147
ENCODING 179
SWIDTH    8000    0
DWIDTH    8    0
BBX  8  13  0   -2
BITMAP
00
00
18
04
08
04
18
00
00
00
00
00
00
ENDCHAR
STARTCHAR 148
ENCODING 180
SWIDTH    8000    0
DWIDTH    8    0
BBX  8  13  0   -2
BITMAP
00
00
04
08
00
00
00
00
00
00
00
00
00
ENDCHAR
STARTCHAR 149
ENCODING 181
SWIDTH    8000    0
DWIDTH    8    0
BBX  8  13  0   -2
BITMAP
00
00
00
00
00
22
22
22
22
22
3C
20
40
ENDCHAR
STARTCHAR 150
ENCODING 182
SWIDTH    8000    0
DWIDTH    8    0
BBX  8  13  0   -2
BITMAP
00
00
3E
7A
7A
7A
3A
0A
0A
0A
0A
00
00
ENDCHAR
STARTCHAR 151
ENCODING 183
SWIDTH    8000    0
DWIDTH    8    0
BBX  8  13  0   -2
BITMAP
00
00
00
00
00
00
00
08
00
00
00
00
00
ENDCHAR
STARTCHAR 152
ENCODING 184
SWIDTH    8000    0
DWIDTH    8    0
BBX  8  13  0   -2
BITMAP
00
00
00
00
00
00
00
00
00
00
08
04
18
ENDCHAR
STARTCHAR 153
ENCODING 185
SWIDTH    8000    0
DWIDTH    8    0
BBX  8  13  0   -2
BITMAP
00
00
18
08
08
08
08
00
00
00
00
00
00
ENDCHAR
STARTCHAR 154
ENCODING 186
SWIDTH    8000    0
DWIDTH    8    0
BBX  8  13  0   -2
BITMAP
00
00
18
24
24
24
18
00
3C
00
00
00
00
ENDCHAR
STARTCHAR 155
ENCODING 187
SWIDTH    8000    0
DWIDTH    8    0
BBX  8  13  0   -2
BITMAP
00
00
00
00
00
00
44
22
11
22
44
00
00
ENDCHAR
STARTCHAR 156
ENCODING 188
SWIDTH    8000    0
DWIDTH    8    0
BBX  8  13  0   -2
BITMAP
00
00
60
21
22
24
79
13
25
4F
01
00
00
ENDCHAR
STARTCHAR 157
ENCODING 189
SWIDTH    8000    0
DWIDTH    8    0
BBX  8  13  0   -2
BITMAP
00
00
60
21
22
24
7A
15
21
42
07
00
00
ENDCHAR
STARTCHAR 158
ENCODING 190
SWIDTH    8000    0
DWIDTH    8    0
BBX  8  13  0   -2
BITMAP
00
00
60
11
22
14
69
13
25
4F
01
00
00
ENDCHAR
STARTCHAR 159
ENCODING 191
SWIDTH    8000    0
DWIDTH    8    0
BBX  8  13  0   -2
BITMAP
00
00
08
00
08
08
10
20
20
22
1C
00
00
ENDCHAR
STARTCHAR 160
ENCODING 192
SWIDTH    8000    0
DWIDTH    8    0
BBX  8  13  0   -2
BITMAP
08
04
0E
12
12
21
21
3F
21
21
21
00
00
ENDCHAR
STARTCHAR 161
ENCODING 193
SWIDTH    8000    0
DWIDTH    8    0
BBX  8  13  0   -2
BITMAP
04
08
1C
12
12
21
21
3F
21
21
21
00
00
ENDCHAR
STARTCHAR 162
ENCODING 194
SWIDTH    8000    0
DWIDTH    8    0
BBX  8  13  0   -2
BITMAP
0C
12
0C
12
12
21
21
3F
21
21
21
00
00
ENDCHAR
STARTCHAR 163
ENCODING 195
SWIDTH    8000    0
DWIDTH    8    0
BBX  8  13  0   -2
BITMAP
19
26
0C
12
12
21
21
3F
21
21
21
00
00
ENDCHAR
STARTCHAR 164
ENCODING 196
SWIDTH    8000    0
DWIDTH    8    0
BBX  8  13  0   -2
BITMAP
12
00
0C
12
12
21
21
3F
21
21
21
00
00
ENDCHAR
STARTCHAR 165
ENCODING 197
SWIDTH    8000    0
DWIDTH    8    0
BBX  8  13  0   -2
BITMAP
0C
12
0C
12
12
21
21
21
3F
21
21
00
00
ENDCHAR
STARTCHAR 166
ENCODING 198
SWIDTH    8000    0
DWIDTH    8    0
BBX  8  13  0   -2
BITMAP
00
00
1F
28
28
28
4E
48
78
48
4F
00
00
ENDCHAR
STARTCHAR 167
ENCODING 199
SWIDTH    8000    0
DWIDTH    8    0
BBX  8  13  0   -2
BITMAP
00
00
00
1E
21
40
40
40
40
21
1E
04
0C
ENDCHAR
STARTCHAR 168
ENCODING 200
SWIDTH    8000    0
DWIDTH    8    0
BBX  8  13  0   -2
BITMAP
10
08
3F
20
20
20
3C
20
20
20
3F
00
00
ENDCHAR
STARTCHAR 169
ENCODING 201
SWIDTH    8000    0
DWIDTH    8    0
BBX  8  13  0   -2
BITMAP
04
08
3F
20
20
20
3C
20
20
20
3F
00
00
ENDCHAR
STARTCHAR 170
ENCODING 202
SWIDTH    8000    0
DWIDTH    8    0
BBX  8  13  0   -2
BITMAP
08
14
3F
20
20
20
3C
20
20
20
3F
00
00
ENDCHAR
STARTCHAR 171
ENCODING 203
SWIDTH    8000    0
DWIDTH    8    0
BBX  8  13  0   -2
BITMAP
22
00
3F
20
20
20
3C
20
20
20
3F
00
00
ENDCHAR
STARTCHAR 172
ENCODING 204
SWIDTH    8000    0
DWIDTH    8    0
BBX  8  13  0   -2
BITMAP
10
08
0C
08
08
08
08
08
08
08
08
00
00
ENDCHAR
STARTCHAR 173
ENCODING 205
SWIDTH    8000    0
DWIDTH    8    0
BBX  8  13  0   -2
BITMAP
04
08
18
08
08
08
08
08
08
08
08
00
00
ENDCHAR
STARTCHAR 174
ENCODING 206
SWIDTH    8000    0
DWIDTH    8    0
BBX  8  13  0   -2
BITMAP
08
14
08
08
08
08
08
08
08
08
08
00
00
ENDCHAR
STARTCHAR 175
ENCODING 207
SWIDTH    8000    0
DWIDTH    8    0
BBX  8  13  0   -2
BITMAP
14
00
08
08
08
08
08
08
08
08
08
00
00
ENDCHAR
STARTCHAR 176
ENCODING 208
SWIDTH    8000    0
DWIDTH    8    0
BBX  8  13  0   -2
BITMAP
00
00
3C
22
21
21
79
21
21
22
3C
00
00
ENDCHAR
STARTCHAR 177
ENCODING 209
SWIDTH    8000    0
DWIDTH    8    0
BBX  8  13  0   -2
BITMAP
39
46
21
31
31
29
25
25
23
23
21
00
00
ENDCHAR
STARTCHAR 178
ENCODING 210
SWIDTH    8000    0
DWIDTH    8    0
BBX  8  13  0   -2
BITMAP
10
08
1C
22
41
41
41
41
41
22
1C
00
00
ENDCHAR
STARTCHAR 179
ENCODING 211
SWIDTH    8000    0
DWIDTH    8    0
BBX  8  13  0   -2
BITMAP
04
08
1C
22
41
41
41
41
41
22
1C
00
00
ENDCHAR
STARTCHAR 180
ENCODING 212
SWIDTH    8000    0
DWIDTH    8    0
BBX  8  13  0   -2
BITMAP
08
14
1C
22
41
41
41
41
41
22
1C
00
00
ENDCHAR
STARTCHAR 181
ENCODING 213
SWIDTH    8000    0
DWIDTH    8    0
BBX  8  13  0   -2
BITMAP
39
4E
1C
22
41
41
41
41
41
22
1C
00
00
ENDCHAR
STARTCHAR 182
ENCODING 214
SWIDTH    8000    0
DWIDTH    8    0
BBX  8  13  0   -2
BITMAP
22
00
1C
22
41
41
41
41
41
22
1C
00
00
ENDCHAR
STARTCHAR 183
ENCODING 215
SWIDTH    8000    0
DWIDTH    8    0
BBX  8  13  0   -2
BITMAP
00
00
00
00
41
22
14
08
14
22
41
00
00
ENDCHAR
STARTCHAR 184
ENCODING 216
SWIDTH    8000    0
DWIDTH    8    0
BBX  8  13  0   -2
BITMAP
00
00
1D
22
45
45
49
51
51
22
5C
00
00
ENDCHAR
STARTCHAR 185
ENCODING 217
SWIDTH    8000    0
DWIDTH    8    0
BBX  8  13  0   -2
BITMAP
10
08
25
21
21
21
21
21
21
21
1E
00
00
ENDCHAR
STARTCHAR 186
ENCODING 218
SWIDTH    8000    0
DWIDTH    8    0
BBX  8  13  0   -2
BITMAP
02
04
29
21
21
21
21
21
21
21
1E
00
00
ENDCHAR
STARTCHAR 187
ENCODING 219
SWIDTH    8000    0
DWIDTH    8    0
BBX  8  13  0   -2
BITMAP
0C
0C
21
21
21
21
21
21
21
21
1E
00
00
ENDCHAR
STARTCHAR 188
ENCODING 220
SWIDTH    8000    0
DWIDTH    8    0
BBX  8  13  0   -2
BITMAP
21
00
21
21
21
21
21
21
21
21
1E
00
00
ENDCHAR
STARTCHAR 189
ENCODING 221
SWIDTH    8000    0
DWIDTH    8    0
BBX  8  13  0   -2
BITMAP
04
08
45
22
22
14
14
08
08
08
08
00
00
ENDCHAR
STARTCHAR 190
ENCODING 222
SWIDTH    8000    0
DWIDTH    8    0
BBX  8  13  0   -2
BITMAP
00
00
20
20
3E
21
21
21
3E
20
20
00
00
ENDCHAR
STARTCHAR 191
ENCODING 223
SWIDTH    8000    0
DWIDTH    8    0
BBX  8  13  0   -2
BITMAP
00
00
1C
22
22
22
2E
21
21
21
2E
00
00
ENDCHAR
STARTCHAR 192
ENCODING 224
SWIDTH    8000    0
DWIDTH    8    0
BBX  8  13  0   -2
BITMAP
00
00
08
04
00
1E
01
1F
21
21
1F
00
00
ENDCHAR
STARTCHAR 193
ENCODING 225
SWIDTH    8000    0
DWIDTH    8    0
BBX  8  13  0   -2
BITMAP
00
00
02
04
00
1E
01
1F
21
21
1F
00
00
ENDCHAR
STARTCHAR 194
ENCODING 226
SWIDTH    8000    0
DWIDTH    8    0
BBX  8  13  0   -2
BITMAP
00
00
04
0A
00
1F
01
1F
21
21
1F
00
00
ENDCHAR
STARTCHAR 195
ENCODING 227
SWIDTH    8000    0
DWIDTH    8    0
BBX  8  13  0   -2
BITMAP
00
00
19
26
00
1E
01
1F
21
21
1F
00
00
ENDCHAR
STARTCHAR 196
ENCODING 228
SWIDTH    8000    0
DWIDTH    8    0
BBX  8  13  0   -2
BITMAP
00
00
12
00
00
1E
01
1F
21
21
1F
00
00
ENDCHAR
STARTCHAR 197
ENCODING 229
SWIDTH    8000    0
DWIDTH    8    0
BBX  8  13  0   -2
BITMAP
00
08
14
08
00
1E
01
1F
21
21
1F
00
00
ENDCHAR
STARTCHAR 198
ENCODING 230
SWIDTH    8000    0
DWIDTH    8    0
BBX  8  13  0   -2
BITMAP
00
00
00
00
00
36
09
3F
48
49
36
00
00
ENDCHAR
STARTCHAR 199
ENCODING 231
SWIDTH    8000    0
DWIDTH    8    0
BBX  8  13  0   -2
BITMAP
00
00
00
00
00
1E
21
20
20
21
1E
04
0C
ENDCHAR
STARTCHAR 200
ENCODING 232
SWIDTH    8000    0
DWIDTH    8    0
BBX  8  13  0   -2
BITMAP
00
00
08
04
00
1E
21
3F
20
21
1E
00
00
ENDCHAR
STARTCHAR 201
ENCODING 233
SWIDTH    8000    0
DWIDTH    8    0
BBX  8  13  0   -2
BITMAP
00
00
04
08
00
1E
21
3F
20
21
1E
00
00
ENDCHAR
STARTCHAR 202
ENCODING 234
SWIDTH    8000    0
DWIDTH    8    0
BBX  8  13  0   -2
BITMAP
00
00
04
0A
00
1E
21
3F
20
21
1E
00
00
ENDCHAR
STARTCHAR 203
ENCODING 235
SWIDTH    8000    0
DWIDTH    8    0
BBX  8  13  0   -2
BITMAP
00
00
12
00
00
1E
21
3F
20
21
1E
00
00
ENDCHAR
STARTCHAR 204
ENCODING 236
SWIDTH    8000    0
DWIDTH    8    0
BBX  8  13  0   -2
BITMAP
00
00
10
08
00
08
08
08
08
08
08
00
00
ENDCHAR
STARTCHAR 205
ENCODING 237
SWIDTH    8000    0
DWIDTH    8    0
BBX  8  13  0   -2
BITMAP
00
00
04
08
00
08
08
08
08
08
08
00
00
ENDCHAR
STARTCHAR 206
ENCODING 238
SWIDTH    8000    0
DWIDTH    8    0
BBX  8  13  0   -2
BITMAP
00
00
08
14
00
08
08
08
08
08
08
00
00
ENDCHAR
STARTCHAR 207
ENCODING 239
SWIDTH    8000    0
DWIDTH    8    0
BBX  8  13  0   -2
BITMAP
00
00
0C
00
00
08
08
08
08
08
08
00
00
ENDCHAR
STARTCHAR 208
ENCODING 240
SWIDTH    8000    0
DWIDTH    8    0
BBX  8  13  0   -2
BITMAP
00
00
14
08
14
02
1E
21
21
21
1E
00
00
ENDCHAR
STARTCHAR 209
ENCODING 241
SWIDTH    8000    0
DWIDTH    8    0
BBX  8  13  0   -2
BITMAP
00
00
19
26
00
2E
31
21
21
21
21
00
00
ENDCHAR
STARTCHAR 210
ENCODING 242
SWIDTH    8000    0
DWIDTH    8    0
BBX  8  13  0   -2
BITMAP
00
00
08
04
00
1E
21
21
21
21
1E
00
00
ENDCHAR
STARTCHAR 211
ENCODING 243
SWIDTH    8000    0
DWIDTH    8    0
BBX  8  13  0   -2
BITMAP
00
00
04
08
00
1E
21
21
21
21
1E
00
00
ENDCHAR
STARTCHAR 212
ENCODING 244
SWIDTH    8000    0
DWIDTH    8    0
BBX  8  13  0   -2
BITMAP
00
00
0C
12
00
1E
21
21
21
21
1E
00
00
ENDCHAR
STARTCHAR 213
ENCODING 245
SWIDTH    8000    0
DWIDTH    8    0
BBX  8  13  0   -2
BITMAP
00
00
19
26
00
1E
21
21
21
21
1E
00
00
ENDCHAR
STARTCHAR 214
ENCODING 246
SWIDTH    8000    0
DWIDTH    8    0
BBX  8  13  0   -2
BITMAP
00
00
12
00
00
1E
21
21
21
21
1E
00
00
ENDCHAR
STARTCHAR 215
ENCODING 247
SWIDTH    8000    0
DWIDTH    8    0
BBX  8  13  0   -2
BITMAP
00
00
00
00
08
00
00
3E
00
00
08
00
00
ENDCHAR
STARTCHAR 216
ENCODING 248
SWIDTH    8000    0
DWIDTH    8    0
BBX  8  13  0   -2
BITMAP
00
00
00
00
00
1F
23
25
29
31
3E
00
00
ENDCHAR
STARTCHAR 217
ENCODING 249
SWIDTH    8000    0
DWIDTH    8    0
BBX  8  13  0   -2
BITMAP
00
00
08
04
00
21
21
21
21
23
1D
00
00
ENDCHAR
STARTCHAR 218
ENCODING 250
SWIDTH    8000    0
DWIDTH    8    0
BBX  8  13  0   -2
BITMAP
00
00
04
08
00
21
21
21
21
23
1D
00
00
ENDCHAR
STARTCHAR 219
ENCODING 251
SWIDTH    8000    0
DWIDTH    8    0
BBX  8  13  0   -2
BITMAP
00
00
04
0A
00
21
21
21
21
23
1D
00
00
ENDCHAR
STARTCHAR 220
ENCODING 252
SWIDTH    8000    0
DWIDTH    8    0
BBX  8  13  0   -2
BITMAP
00
00
12
00
00
21
21
21
21
23
1D
00
00
ENDCHAR
STARTCHAR 221
ENCODING 253
SWIDTH    8000    0
DWIDTH    8    0
BBX  8  13  0   -2
BITMAP
00
00
04
08
00
41
22
22
14
14
08
08
30
ENDCHAR
STARTCHAR 222
ENCODING 254
SWIDTH    8000    0
DWIDTH    8    0
BBX  8  13  0   -2
BITMAP
00
00
20
20
20
3E
21
21
21
21
3E
20
20
ENDCHAR
STARTCHAR 223
ENCODING 255
SWIDTH    8000    0
DWIDTH    8    0
BBX  8  13  0   -2
BITMAP
00
00
22
00
00
41
22
22
14
14
08
08
30
ENDCHAR
ENDFONT
